<svg aria-labelledby="HLK Home" xmlns="http://www.w3.org/2000/svg" viewBox="0 0 79 79" width="79" height="79" class="logo-hlk" data-v-b31b2e74=""><title id="HLK Home" lang="en" data-v-b31b2e74="">HLK Home</title><path d="M79,79H0V0H79ZM5.28,73.72H73.72V5.28H5.28Z" class="blue" data-v-b31b2e74=""></path><g class="animation-container" data-v-b31b2e74=""><path d="M24.05,38.14c0-2,1-3.06,2.67-3.06s2.58,1,2.58,3.06v8.4h4.27V36.79c0-3.45-1.88-5.59-5.11-5.59a5.34,5.34,0,0,0-4.41,2.42V26H19.78v20.5h4.27Z" class="grey" data-v-b31b2e74=""></path><rect x="36.89" y="26.04" width="4.27" height="20.5" class="grey" data-v-b31b2e74=""></rect><polygon points="59.04 31.49 53.93 31.49 48.93 36.97 48.93 26.04 44.66 26.04 44.66 46.54 48.93 46.54 48.93 41.96 50.45 40.36 54.29 46.54 59.24 46.54 53.31 37.41 59.04 31.49" class="grey" data-v-b31b2e74=""></polygon><rect x="19.91" y="51.55" width="39.45" height="1.73" class="blue" data-v-b31b2e74=""></rect></g></svg>